<svg id="Layer_1" data-name="Layer 1" xmlns="http://www.w3.org/2000/svg" xmlns:xlink="http://www.w3.org/1999/xlink" viewBox="0 0 1500 1500"><defs><style>.cls-1{fill:none;}.cls-14,.cls-2,.cls-6{fill:#ee1700;}.cls-2{stroke:#000;stroke-miterlimit:10;stroke-width:4px;}.cls-3{font-size:105.91px;font-family:CircularStd-Bold, CircularStd Bold;font-weight:700;}.cls-4{letter-spacing:-0.01em;}.cls-5{letter-spacing:0em;}.cls-6{letter-spacing:-0.15em;}.cls-7{clip-path:url(#clip-path);}.cls-8{clip-path:url(#clip-path-2);}.cls-9{clip-path:url(#clip-path-3);}.cls-10{clip-path:url(#clip-path-4);}.cls-11{fill:#05bfce;}.cls-12{fill:#ffcd10;}.cls-13{fill:#95bf15;}.cls-15{fill:#205b67;}.cls-16{fill:#0060ff;}.cls-17{clip-path:url(#clip-path-6);}.cls-18{clip-path:url(#clip-path-7);}.cls-19{clip-path:url(#clip-path-8);}.cls-20{clip-path:url(#clip-path-9);}</style><clipPath id="clip-path"><rect class="cls-1" x="151.5" y="728.92" width="84.27" height="81.56"/></clipPath><clipPath id="clip-path-2"><rect class="cls-1" x="129.19" y="707.33" width="131.37" height="127.13"/></clipPath><clipPath id="clip-path-3"><rect class="cls-1" x="129.19" y="712.89" width="434.28" height="124.05"/></clipPath><clipPath id="clip-path-4"><rect class="cls-1" x="73.71" y="533.91" width="547.15" height="529.51"/></clipPath><clipPath id="clip-path-6"><rect class="cls-1" x="263.79" y="727.58" width="512.47" height="84.27"/></clipPath><clipPath id="clip-path-7"><rect class="cls-1" x="255.82" y="644.45" width="546.64" height="176.52"/></clipPath><clipPath id="clip-path-8"><rect class="cls-1" x="9.83" y="695.7" width="775.54" height="228.9"/></clipPath><clipPath id="clip-path-9"><rect class="cls-1" x="-89.25" y="365.44" width="977.11" height="977.11"/></clipPath></defs><title>learn in logo</title><line class="cls-2" x1="810.22" y1="704.08" x2="808.75" y2="837.32"/><text class="cls-3" transform="translate(841.63 806.24)"><tspan class="cls-4">L</tspan><tspan x="48.51" y="0">ea</tspan><tspan class="cls-5" x="152.62" y="0">r</tspan><tspan x="187.67" y="0">n in </tspan><tspan class="cls-6" x="374.92" y="0">//</tspan></text><g class="cls-7"><g class="cls-8"><g class="cls-9"><g class="cls-10"><polygon points="286.34 774.77 286.34 740.08 273.82 740.08 273.82 732.84 307.96 732.84 307.96 740.08 295.41 740.08 295.41 774.77 286.34 774.77"/><g class="cls-10"><path d="M311,735.81a4.7,4.7,0,1,1,4.69,4.38,4.48,4.48,0,0,1-4.69-4.38m.3,7.81h8.77v31.15h-8.77Z"/><path d="M325.91,743.62h8.47v5.61h.18c1.83-4,5.11-6.07,10.06-6.07,7.15,0,11.17,4.36,11.17,11.65v20H347V756.58c0-4.07-1.95-6.39-5.94-6.39s-6.4,2.79-6.4,6.86v17.72h-8.77Z"/><polygon points="381.37 743.62 391.31 743.62 379.03 756.99 391.91 774.77 381.82 774.77 372.61 762.1 370.32 764.49 370.32 774.77 361.56 774.77 361.56 732.84 370.32 732.84 370.32 756.12 370.44 756.12 381.37 743.62"/><path d="M422.3,765.24c-1,6.08-6.79,10.09-14.68,10.09-9.85,0-15.86-6.08-15.86-16s6-16.27,15.53-16.27c9.33,0,15.28,6,15.28,15.49v2.58H400.38v.53a7,7,0,0,0,7.39,7.38c3.15,0,5.67-1.45,6.48-3.81Zm-21.83-9.3h13.66a6.48,6.48,0,0,0-6.75-6.59,6.78,6.78,0,0,0-6.91,6.59"/><path d="M427.07,743.62h8.47v5.61h.18c1.11-3.86,3.87-6,7.66-6a8.42,8.42,0,0,1,2.49.32V751a9.3,9.3,0,0,0-3.18-.49c-4.33,0-6.85,2.56-6.85,6.94v17.29h-8.77Z"/><polygon points="479.98 774.77 479.98 755.68 456.2 755.68 456.2 774.77 450.8 774.77 450.8 732.84 456.2 732.84 456.2 750.97 479.98 750.97 479.98 732.84 485.38 732.84 485.38 774.77 479.98 774.77"/><path d="M518.62,774.77h-5v-5h-.12c-1.92,3.51-5.1,5.31-9.91,5.31-6.81,0-10.81-4.27-10.81-11.13V744.55h5.23V763c0,4.91,2.37,7.56,7.2,7.56,5.08,0,8.14-3.37,8.14-8.52V744.55h5.22Z"/><path d="M530.76,769.66h-.12v5.11h-5V732.84h5.23v16.62H531c2-3.31,5.58-5.2,10-5.2,7.87,0,13.19,6.16,13.19,15.4s-5.32,15.4-13.28,15.4c-4.56,0-8.13-1.91-10.14-5.4m.09-10c0,6.51,3.66,10.93,9,10.93s9-4.27,9-10.93-3.54-10.92-9-10.92-9,4.44-9,10.92"/><polygon points="275.96 809.35 275.96 787.98 289.36 787.98 289.36 790.38 278.71 790.38 278.71 797.73 288.49 797.73 288.49 800.09 278.71 800.09 278.71 809.35 275.96 809.35"/><path d="M290.69,801.65c0-4.92,3-8,7.37-8s7.36,3.05,7.36,8-3,8-7.36,8-7.37-3.06-7.37-8m12,0c0-3.63-1.83-5.7-4.65-5.7s-4.66,2.07-4.66,5.7,1.85,5.7,4.66,5.7,4.65-2.08,4.65-5.7"/><path d="M321.16,809.35h-2.52v-2.51h-.06a5.26,5.26,0,0,1-5.05,2.77c-3.47,0-5.51-2.17-5.51-5.67V794h2.66v9.53c0,2.51,1.21,3.85,3.67,3.85s4.15-1.72,4.15-4.34v-9h2.66Z"/><path d="M324.6,794h2.51v2.46h.06a5.37,5.37,0,0,1,5.05-2.73c3.49,0,5.51,2.18,5.51,5.67v10h-2.66v-9.54c0-2.48-1.21-3.85-3.66-3.85a4,4,0,0,0-4.15,4.33v9.06H324.6Z"/><path d="M340.33,801.65c0-4.83,2.73-8,6.74-8a5.63,5.63,0,0,1,5.07,2.77h.06V788h2.66v21.37h-2.54v-2.61h-.05a5.71,5.71,0,0,1-5.14,2.87c-4.05,0-6.8-3.14-6.8-8m2.72,0c0,3.49,1.77,5.7,4.59,5.7s4.57-2.25,4.57-5.7-1.83-5.7-4.57-5.7-4.59,2.22-4.59,5.7"/><path d="M357.81,805c0-2.63,2.1-4.29,5.77-4.5l4.56-.25V799c0-1.88-1.29-3-3.49-3-2,0-3.34.93-3.67,2.44h-2.57c.18-2.66,2.54-4.71,6.3-4.71s6.09,2,6.09,5v10.65h-2.53V806.7h-.06a5.84,5.84,0,0,1-5.11,2.91c-3.16,0-5.29-1.85-5.29-4.62m10.33-1.49v-1.26l-4.26.25c-2.14.13-3.36,1-3.36,2.5s1.27,2.43,3.18,2.43c2.51,0,4.44-1.7,4.44-3.92"/><path d="M377.7,790.23V794h3.09v2.12H377.7v9.15c0,1.4.61,2,2,2a10.44,10.44,0,0,0,1.1-.08v2.17a10.4,10.4,0,0,1-1.68.11c-2.92,0-4.06-1.15-4.06-4.11v-9.28h-2.37V794H375v-3.72Z"/><path d="M383.42,789.6a1.67,1.67,0,1,1,1.66,1.61,1.63,1.63,0,0,1-1.66-1.61m.33,4.35h2.66v15.4h-2.66Z"/><path d="M389.23,801.65c0-4.92,3-8,7.37-8s7.36,3.05,7.36,8-3,8-7.36,8-7.37-3.06-7.37-8m12,0c0-3.63-1.83-5.7-4.65-5.7s-4.66,2.07-4.66,5.7,1.85,5.7,4.66,5.7,4.65-2.08,4.65-5.7"/><path d="M406.64,794h2.5v2.46h.07a5.34,5.34,0,0,1,5-2.73c3.49,0,5.51,2.18,5.51,5.67v10H417.1v-9.54c0-2.48-1.21-3.85-3.66-3.85a4,4,0,0,0-4.14,4.33v9.06h-2.66Z"/><path class="cls-11" d="M200.34,750.78H156.4a3,3,0,0,1-3-2.94V734.35a3,3,0,0,1,3-2.93h43.94a3,3,0,0,1,3,2.93v13.49a3,3,0,0,1-3,2.94"/><path class="cls-12" d="M230.35,779.82H156.4a3,3,0,0,1-3-2.94V763.39a3,3,0,0,1,3-2.93h73.95a3,3,0,0,1,3,2.93v13.49a3,3,0,0,1-3,2.94"/><path class="cls-13" d="M205.33,808.86h-8.92a3,3,0,0,1-3-2.94V792.43a3,3,0,0,1,3-2.93h8.92a3,3,0,0,1,3,2.93v13.49a3,3,0,0,1-3,2.94"/><path class="cls-14" d="M180.29,808.78H156.57a3,3,0,0,1-3-2.94V792.71a3,3,0,0,1,3-2.93h23.72a3,3,0,0,1,3,2.93v13.13a3,3,0,0,1-3,2.94"/><path class="cls-15" d="M230.35,808.86h-8.66a3,3,0,0,1-3-2.94V792.43a3,3,0,0,1,3-2.93h8.66a3,3,0,0,1,3,2.93v13.49a3,3,0,0,1-3,2.94"/><path class="cls-16" d="M230.35,750.78H216.41a3,3,0,0,1-3-2.94V734.35a3,3,0,0,1,3-2.93h13.94a3,3,0,0,1,3,2.93v13.49a3,3,0,0,1-3,2.94"/></g></g></g></g></g><g class="cls-17"><g class="cls-18"><g class="cls-19"><g class="cls-20"><polygon points="290.47 809.89 290.47 745.87 268.11 745.87 268.11 732.52 329.07 732.52 329.07 745.87 306.66 745.87 306.66 809.89 290.47 809.89"/><g class="cls-20"><path d="M334.54,738a8.37,8.37,0,1,1,8.37,8.1,8.12,8.12,0,0,1-8.37-8.1m.54,14.42h15.66V809.9H335.08Z"/><path d="M361.14,752.41h15.12v10.35h.32c3.28-7.34,9.12-11.21,18-11.21,12.76,0,19.94,8.05,19.94,21.51V809.9H398.84V776.33c0-7.51-3.49-11.8-10.62-11.8s-11.42,5.15-11.42,12.66V809.9H361.14Z"/><polygon points="460.18 752.41 477.93 752.41 456 777.08 479 809.89 460.99 809.89 444.52 786.52 440.45 790.91 440.45 809.89 424.79 809.89 424.79 732.52 440.45 732.52 440.45 775.47 440.66 775.47 460.18 752.41"/><path d="M533.27,792.31c-1.72,11.2-12.12,18.6-26.22,18.6-17.59,0-28.31-11.2-28.31-29.49s10.77-30,27.72-30c16.67,0,27.29,11.1,27.29,28.58v4.78H494.12v1c0,8.1,5.31,13.62,13.19,13.62,5.63,0,10.14-2.68,11.59-7Zm-39-17.16h24.4c-.32-7.35-5.15-12.17-12.06-12.17s-11.8,5-12.34,12.17"/><path d="M541.79,752.41h15.13v10.35h.32c2-7.13,6.91-11,13.67-11a14.27,14.27,0,0,1,4.45.6v13.78a16,16,0,0,0-5.68-.92c-7.72,0-12.23,4.72-12.23,12.82V809.9H541.79Z"/><polygon points="636.28 809.89 636.28 774.67 593.81 774.67 593.81 809.89 584.16 809.89 584.16 732.52 593.81 732.52 593.81 765.98 636.28 765.98 636.28 732.52 645.93 732.52 645.93 809.89 636.28 809.89"/><path d="M705.29,809.9h-8.85v-9.28h-.21c-3.44,6.49-9.12,9.81-17.7,9.81-12.17,0-19.3-7.88-19.3-20.54V754.13h9.33v34.1c0,9.06,4.23,13.94,12.87,13.94,9.06,0,14.53-6.22,14.53-15.71V754.13h9.33Z"/><path d="M727,800.46h-.21v9.43h-8.91V732.52h9.34v30.67h.21c3.48-6.11,10-9.6,17.86-9.6,14,0,23.54,11.37,23.54,28.42s-9.49,28.42-23.71,28.42c-8.15,0-14.53-3.54-18.12-10m.16-18.45c0,12,6.54,20.16,16.14,20.16s16-7.88,16-20.16-6.33-20.16-16-20.16-16.14,8.2-16.14,20.16"/><polygon points="271.93 873.69 271.93 834.27 295.86 834.27 295.86 838.7 276.85 838.7 276.85 852.25 294.3 852.25 294.3 856.62 276.85 856.62 276.85 873.69 271.93 873.69"/><path d="M298.24,859.49c0-9.07,5.3-14.7,13.16-14.7s13.14,5.63,13.14,14.7-5.3,14.69-13.14,14.69-13.16-5.65-13.16-14.69m21.47,0c0-6.7-3.28-10.52-8.31-10.52s-8.33,3.82-8.33,10.52S306.38,870,311.4,870s8.31-3.82,8.31-10.51"/><path d="M352.65,873.69h-4.51v-4.61H348c-1.69,3.27-4.64,5.1-9,5.1-6.2,0-9.83-4-9.83-10.46V845.28h4.75v17.59c0,4.62,2.16,7.11,6.56,7.11,4.61,0,7.4-3.17,7.4-8V845.28h4.75Z"/><path d="M358.8,845.28h4.48v4.54h.11c1.58-3.06,4.61-5,9-5,6.23,0,9.83,4,9.83,10.46v18.44h-4.75V856.1c0-4.59-2.16-7.1-6.53-7.1s-7.4,3.17-7.4,8v16.72H358.8Z"/><path d="M386.88,859.49c0-8.91,4.89-14.7,12.05-14.7a10,10,0,0,1,9,5.11h.11V834.27h4.75v39.42H408.3v-4.81h-.09a10.16,10.16,0,0,1-9.18,5.3c-7.23,0-12.15-5.79-12.15-14.69m4.86,0c0,6.44,3.17,10.51,8.2,10.51s8.16-4.15,8.16-10.51S404.83,849,399.94,849s-8.2,4.1-8.2,10.52"/><path d="M418.1,865.66c0-4.86,3.74-7.92,10.3-8.3l8.14-.47v-2.37c0-3.47-2.29-5.55-6.23-5.55-3.66,0-5.95,1.72-6.55,4.51h-4.59c.32-4.92,4.53-8.69,11.25-8.69s10.87,3.61,10.87,9.26v19.64h-4.5V868.8h-.11a10.37,10.37,0,0,1-9.13,5.38c-5.65,0-9.45-3.41-9.45-8.52m18.44-2.76v-2.32L429,861c-3.83.25-6,1.94-6,4.62s2.26,4.48,5.68,4.48c4.48,0,7.92-3.14,7.92-7.24"/><path d="M453.61,838.43v6.85h5.52v3.91h-5.52v16.88c0,2.6,1.1,3.77,3.53,3.77a16.94,16.94,0,0,0,2-.14v4a16.5,16.5,0,0,1-3,.22c-5.22,0-7.24-2.13-7.24-7.59V849.19h-4.23v-3.91h4.23v-6.85Z"/><path d="M463.83,837.25a3,3,0,1,1,3,3,3,3,0,0,1-3-3m.6,8h4.75v28.41h-4.75Z"/><path d="M474.21,859.49c0-9.07,5.3-14.7,13.17-14.7s13.14,5.63,13.14,14.7-5.3,14.69-13.14,14.69-13.17-5.65-13.17-14.69m21.47,0c0-6.7-3.28-10.52-8.3-10.52S479,852.79,479,859.49,482.35,870,487.38,870s8.3-3.82,8.3-10.51"/><path d="M505.3,845.28h4.48v4.54h.1c1.59-3.06,4.62-5,9-5,6.23,0,9.83,4,9.83,10.46v18.44H524V856.1c0-4.59-2.16-7.1-6.53-7.1s-7.4,3.17-7.4,8v16.72H505.3Z"/><path class="cls-11" d="M136.89,765.62H58.41A5.42,5.42,0,0,1,53,760.2V735.31a5.42,5.42,0,0,1,5.42-5.42h78.48a5.42,5.42,0,0,1,5.42,5.42V760.2a5.42,5.42,0,0,1-5.42,5.42"/><path class="cls-12" d="M190.47,819.2H58.41A5.42,5.42,0,0,1,53,813.78V788.9a5.42,5.42,0,0,1,5.42-5.42H190.47a5.41,5.41,0,0,1,5.42,5.42v24.88a5.41,5.41,0,0,1-5.42,5.42"/><path class="cls-13" d="M145.8,872.79H129.86a5.42,5.42,0,0,1-5.42-5.42V842.49a5.42,5.42,0,0,1,5.42-5.42H145.8a5.42,5.42,0,0,1,5.42,5.42v24.88a5.42,5.42,0,0,1-5.42,5.42"/><path class="cls-14" d="M101.09,872.64H58.72a5.42,5.42,0,0,1-5.42-5.42V843a5.42,5.42,0,0,1,5.42-5.42h42.37A5.42,5.42,0,0,1,106.5,843v24.22a5.41,5.41,0,0,1-5.41,5.42"/><path class="cls-15" d="M190.47,872.79H175a5.42,5.42,0,0,1-5.42-5.42V842.49a5.41,5.41,0,0,1,5.42-5.42h15.45a5.41,5.41,0,0,1,5.42,5.42v24.88a5.42,5.42,0,0,1-5.42,5.42"/><path class="cls-16" d="M190.47,765.62H165.59a5.42,5.42,0,0,1-5.42-5.42V735.31a5.42,5.42,0,0,1,5.42-5.42h24.88a5.42,5.42,0,0,1,5.42,5.42V760.2a5.42,5.42,0,0,1-5.42,5.42"/></g></g></g></g></g></svg>